<svg class="svg-icon" style="width: 1em; height: 1em;vertical-align: middle;fill: currentColor;overflow: hidden;" viewBox="0 0 1024 1024" version="1.1" xmlns="http://www.w3.org/2000/svg"><path d="M996.278857 431.835429l-75.776-18.944c-12.288-3.072-22.162286-12.288-25.965714-24.283429-6.729143-20.772571-14.994286-40.886857-24.795429-59.977143-5.778286-11.190857-5.339429-24.649143 1.243429-35.547429l40.155429-66.925714c8.630857-14.336 6.436571-32.768-5.485714-44.617143l-63.049143-63.122286c-11.849143-11.922286-30.281143-14.116571-44.690286-5.485714l-66.998857 40.228571C720.018286 159.597714 706.486857 160.036571 695.296 154.258286 676.132571 144.457143 656.091429 136.118857 635.318857 129.462857c-12.068571-3.803429-21.211429-13.677714-24.283429-25.892571L592.091429 27.721143C587.995429 11.410286 573.366857 0 556.544 0L467.456 0c-16.749714 0-31.451429 11.410286-35.474286 27.721143L412.964571 103.497143C409.892571 115.712 400.749714 125.659429 388.608 129.462857c-20.772571 6.729143-40.886857 15.067429-59.977143 24.868571C317.366857 160.036571 303.908571 159.597714 293.083429 153.088L226.157714 112.932571c-14.336-8.630857-32.768-6.363429-44.617143 5.485714L118.418286 181.467429C106.569143 193.389714 104.301714 211.821714 112.932571 226.230857l40.155429 66.852571c6.509714 10.825143 6.948571 24.283429 1.243429 35.547429C144.457143 347.794286 136.118857 367.835429 129.462857 388.681143c-3.876571 11.995429-13.750857 21.211429-25.892571 24.283429L27.721143 431.908571C11.410286 436.004571 0 450.633143 0 467.456l0 89.161143c0 16.749714 11.410286 31.451429 27.721143 35.474286l75.776 19.017143C115.712 614.107429 125.586286 623.250286 129.462857 635.392c6.729143 20.772571 14.994286 40.886857 24.868571 59.977143C160.036571 706.56 159.597714 720.018286 153.088 730.916571l-40.155429 66.925714c-8.630857 14.262857-6.363429 32.768 5.485714 44.617143l63.049143 63.049143c11.849143 11.922286 30.281143 14.116571 44.617143 5.485714l66.925714-40.155429c10.825143-6.509714 24.283429-6.948571 35.547429-1.243429 19.163429 9.874286 39.204571 18.139429 59.977143 24.868571 12.068571 3.876571 21.284571 13.677714 24.283429 25.892571l18.944 75.776C435.931429 1012.589714 450.56 1024 467.382857 1024l89.234286 0c16.749714 0 31.451429-11.410286 35.474286-27.721143l18.944-75.776c3.072-12.214857 12.288-22.089143 24.356571-25.892571 20.772571-6.729143 40.886857-14.994286 59.977143-24.868571 11.264-5.705143 24.722286-5.266286 35.547429 1.243429l66.852571 40.155429c14.409143 8.630857 32.841143 6.436571 44.690286-5.412571l63.049143-63.122286c11.922286-11.849143 14.116571-30.354286 5.485714-44.690286l-40.155429-66.925714c-6.509714-10.825143-7.021714-24.283429-1.243429-35.474286 9.801143-19.236571 18.139429-39.204571 24.795429-59.977143 3.876571-12.068571 13.750857-21.284571 25.965714-24.356571l75.776-18.944C1012.589714 587.995429 1024 573.366857 1024 556.544L1024 467.382857C1024 450.56 1012.589714 435.931429 996.278857 431.835429zM512 731.428571c-121.197714 0-219.428571-98.230857-219.428571-219.428571s98.230857-219.428571 219.428571-219.428571 219.428571 98.230857 219.428571 219.428571S633.197714 731.428571 512 731.428571z"  /></svg>